<svg xmlns="http://www.w3.org/2000/svg" width="1200" height="630" viewBox="0 0 1200 630">
<rect width="1200" height="630" fill="#edf5fc"/><rect x="40" y="40" width="1120" height="550" rx="28" fill="white"/>
<g font-family="Segoe UI,Arial,sans-serif"><text x="90" y="130" fill="#1765ce" font-size="22" font-weight="700" letter-spacing="3">BAYVIEW SECONDARY SCHOOL · 2026–27</text><text x="85" y="238" fill="#142a43" font-size="70" font-weight="800">Bayview AI Club</text><text x="90" y="322" fill="#1765ce" font-size="39" font-weight="650">Understand AI. Test it.</text><text x="90" y="380" fill="#1765ce" font-size="39" font-weight="650">Build with it.</text><text x="90" y="465" fill="#51657a" font-size="23">28 meetings · 14 theory/lab pairs · 5 phases</text><text x="90" y="521" fill="#51657a" font-size="20">Student-led. Beginners welcome.</text></g>
<g transform="translate(790 190)"><circle cx="140" cy="125" r="150" fill="#edf5fc"/><path d="M80 209Q27 188 22 153M198 209Q247 188 251 153" stroke="#2e7de0" stroke-width="14" fill="none" stroke-linecap="round"/><path d="M140 60V25" stroke="#2e7de0" stroke-width="9"/><circle cx="140" cy="15" r="11" fill="#70c9f3"/><rect x="68" y="54" width="144" height="122" rx="38" fill="white" stroke="#2e7de0" stroke-width="7"/><rect x="85" y="81" width="110" height="65" rx="24" fill="#12365d"/><path d="M103 111q9-15 18 0m40 0q9-15 18 0M129 126q11 10 22 0" stroke="#8bddff" stroke-width="5" fill="none" stroke-linecap="round"/><rect x="91" y="186" width="98" height="72" rx="26" fill="white" stroke="#2e7de0" stroke-width="7"/><g stroke="#2e7de0" fill="#2e7de0"><path d="M126 216l26-9-7 26z" fill="none"/><circle cx="126" cy="216" r="4"/><circle cx="152" cy="207" r="4"/><circle cx="145" cy="233" r="4"/></g></g></svg>
